<svg width="28" height="28" viewBox="0 0 28 28" fill="none" xmlns="http://www.w3.org/2000/svg">
<path d="M2.33246 11.0792C2.33248 9.78145 2.72617 8.5142 3.46153 7.44486C4.19688 6.37552 5.23931 5.55439 6.45113 5.08993C7.66296 4.62547 8.98716 4.53952 10.2489 4.84344C11.5105 5.14736 12.6504 5.82685 13.5178 6.79216C13.5789 6.85749 13.6527 6.90957 13.7348 6.94517C13.8168 6.98078 13.9053 6.99915 13.9948 6.99915C14.0842 6.99915 14.1727 6.98078 14.2548 6.94517C14.3368 6.90957 14.4107 6.85749 14.4718 6.79216C15.3365 5.82058 16.4765 5.13538 17.7403 4.82776C19.004 4.52015 20.3315 4.60472 21.546 5.0702C22.7605 5.53569 23.8044 6.36002 24.5388 7.43348C25.2732 8.50693 25.6633 9.7786 25.6571 11.0792C25.6571 13.7499 23.9078 15.7442 22.1584 17.4935L15.7535 23.6897C15.5361 23.9393 15.2682 24.1398 14.9675 24.2778C14.6667 24.4159 14.34 24.4884 14.0091 24.4905C13.6782 24.4926 13.3506 24.4242 13.0481 24.29C12.7457 24.1557 12.4752 23.9587 12.2548 23.7119L5.83115 17.4935C4.08181 15.7442 2.33246 13.7616 2.33246 11.0792Z" stroke="white" stroke-width="2.33246" stroke-linecap="round" stroke-linejoin="round"/>
</svg>
